<svg viewBox="97.18785151856018 339.12 1680.2699662542182 412.56" version="1.1" xmlns="http://www.w3.org/2000/svg" data-name="Слой_1" id="_Слой_1" style="max-height: 500px" width="1680.2699662542182" height="412.56">
  
  <defs>
    <style>
      .st0 {
        fill: #fff;
      }

      .st1 {
        fill: #d18f01;
      }

      .st2 {
        fill: #d18f00;
      }
    </style>
  </defs>
  <path d="M356.15,549.84c-9.38-21.08-31-18.33-50.32-15.27l-14.62-51.71c5.05-4.03,20.45-2.47,25.07,1.36,2.89,2.39,6.29,16.82,8.31,17.1,1.26.19,4.07-1.24,4.2-2.96.44-5.75-5.03-16.95-3.82-23.74-1.07-3.29-16.26-2.68-19.65-2.47-5.47.36-11.49,1.89-16.93,2.81l-2.75-12.86-8.77,2.71c-.71,1.18,4.36,10.47,2.85,12.86-.67,1.09-11.62,7.26-14.26,9.65-12.04,10.89-15.38,27.18-11.45,42.66,5.94,23.43,26.64,26.76,47.74,22.26l1.13,1.32,15.58,53.99c-6.12,5.6-29.32,1.85-33.02-4.43-1.83-3.1-3.5-15.33-5.87-16.15-3.61-1.24-5.08.5-4.95,3.98.29,8.12,4.87,18.58,5.01,27.16,13.76,4.3,28.05.21,41.8-1.89.5,2.58,3.86,18.63,4.66,19.21,1.26.88,7.2-1.61,9.08-1.82l-6.12-19.7c4.38-3.99,9.84-6.23,14.41-10.05,15.88-13.3,21.25-34.8,12.69-54.01ZM269.27,523.89c-6.54-15.04-3.23-33.44,13.63-38.85l14.68,50.45c-12.17,2.58-22.99.61-28.3-11.6ZM335.21,601.09c-2.06,1.64-8.45,6.33-9.27,1.89l-14.56-51.85c14.47-3.31,27.9.08,32.74,15.35,3.88,12.27,1.59,26.37-8.91,34.61Z" class="st2"/>
  <path d="M489.79,498.77c-18.9-91.46-85.35-151.93-181.4-145.57-51.18,3.4-116.94,31.46-153.02,68.05-113.58,115.16-17.12,335.4,146.33,318.79,120.21-12.21,213.47-118.47,188.09-241.27ZM446.66,612.56c-17.91,79-112.45,117.46-184.27,86.08-82.81-36.18-147.08-175.42-92.69-255.7,24.92-36.81,76.52-59.45,120.34-60.35,107.86-2.24,177.9,135.99,156.61,229.98Z" class="st2"/>
  <path d="M1100.25,541.91l6.84-4.61c23.24-20.43,9.35-53.53-20.16-56.85h-72.01v133.01h71.09c7.72,0,19.23-4.72,25.25-9.61,20.62-16.84,17.52-55.77-11.01-61.94ZM1036.94,500.17c0-.1,1.28-1.38,1.38-1.38h38.53c2.73,0,11.96,3.19,14.16,5.12,6.08,5.33,5.68,19.82.1,25.65-2.43,2.54-10.07,5.92-13.34,5.92h-40.82v-35.32ZM1090.41,591.25c-1.89.76-10.13,2.94-11.73,2.94h-40.36c-.1,0-1.38-1.28-1.38-1.38v-39.44c0-.25,1.07-.9,1.38-1.38h36.69c2.35,0,9.27,1.24,11.87,1.89,8.98,2.27,13.49,7.66,14.28,16.93.75,9.13-1.83,16.87-10.74,20.43Z" class="st2"/>
  <path d="M683.77,522.65h-22.93c-2.7-23.94-32.74-32.31-51.66-20.93-24.59,14.78-25.43,57.4-11.1,79.57,12.34,19.09,44.67,21.33,57.44,1.63,4.17-6.44,4.84-14.15,7.62-20.82h21.1c2.36,0-.1,10.29-.58,12.26-8.01,33.23-40.18,47.42-72.2,40.34-54.77-12.12-61.33-97.6-18.41-127.28,32.42-22.42,87.57-8.17,90.73,35.23Z" class="st2"/>
  <path d="M1424.97,480.45v47.7c-13.45-18.73-45.14-18.19-60.56-2.31-18,18.52-18.14,59.55.04,77.99,15.73,15.96,47.8,16.72,61.44-2.29.25,2.06-.88,11.93,1.38,11.93h18.81v-133.01h-21.1ZM1388.27,596.49c-22.93-9.65-22.28-63.85,9.02-65.36,44.11-2.12,35.28,84.01-9.02,65.36Z" class="st2"/>
  <path d="M925.95,480.45v48.62c12.3-18.76,48.35-20.82,59.46-.3,1,1.85,3.83,9.17,3.83,10.85v73.84h-21.1v-64.67c0-1.07-1.96-7-2.58-8.43-4.93-11.3-23.84-10.52-31.86-3.08-3.15,2.92-7.76,11.99-7.76,16.09v60.08h-21.1v-133.01h21.1Z" class="st2"/>
  <path d="M784.87,596.32c-1.59-17.95,1.55-37.99-.31-55.67-1.62-15.75-11.7-23.03-26.43-25.84-24.1-4.61-54.54,2.26-55.1,31.69h18.81c2.73-4.89,2.64-10.74,7.85-14.16,8.33-5.48,31.92-5.01,33.83,7.34,1.03,6.67,1.18,11.35-5.43,13.72-19.45,6.98-55.48-.15-59.4,28.67-5.14,37.55,44.11,41.78,65.34,22.25,4.13,13.21,19.21,13.07,29.81,8.7v-14.22c-2.87-.11-7.95,1.07-8.98-2.47ZM763.58,584.56c-2.9,18.37-42.73,23.83-43.17,1.85-.42-21.6,30.5-13.55,43.17-21.58-.67,6.06.92,13.93,0,19.72Z" class="st2"/>
  <path d="M1224.04,591.02c-1.2-17.18,1.93-37.3-.06-54.05-3-25.28-44.09-27.06-62.26-19.36-11.64,4.93-18.17,16.59-19.28,28.88h20.18c.11-24.39,47.15-23.7,41.09,2.1-.78,3.31-3.8,4.3-6.73,5.2-17.73,5.39-54.01.94-57.98,26.41-6.23,39.88,42.54,43.48,65.82,24.08,3.4,14.12,18.37,12,29.35,9.17v-14.68c-8.35.31-9.54.54-10.13-7.76ZM1203.89,582.73c0,1.13-1.83,6.21-2.56,7.53-7.19,13.19-40.86,15.8-41.37-3.94-.55-20.6,32.01-14.12,43.94-21.48v17.89Z" class="st2"/>
  <path d="M1681.82,516.23h19.72c.1,0,1.38,1.28,1.38,1.38v95.86h-20.18v-13.76c-10.85,13.62-28.01,19.61-44.92,14.19-8.63-2.76-19.29-14.64-19.29-23.83v-73.84h19.72c.1,0,1.38,1.28,1.38,1.38v65.13c0,1.39,1.99,6.61,2.91,8.1,5.22,8.48,20.53,8.95,28.22,3.76,5.88-3.96,11.07-15.99,11.07-22.87v-55.5Z" class="st2"/>
  <path d="M883.75,544.66h-20.18c-.35,0-1.09-5.21-1.96-6.76-4.89-8.8-18.63-10.12-27.41-7.47-10.67,3.21-12.71,14.73-2.18,19.64,16.16,7.54,45.33,4.24,53.45,24.53,7.24,18.11-5.4,34.82-22.79,39.34-24.87,6.48-60.67.02-60.56-31.67h20.18c.61,18.47,24.91,22.54,38.06,14.64,5.3-3.19,8.47-10.85,4.58-16.45-6.15-8.85-42.15-9.56-53.95-20.35-9.87-9.03-8.88-26.96.32-36.07,18.07-17.9,74.84-13.58,72.46,20.63Z" class="st2"/>
  <path d="M1332.32,613.46h-21.1v-64.67c0-1.07-1.96-7-2.58-8.43-5.35-12.27-25.99-10.59-33.66-1.21-2.38,2.91-5.95,10.67-5.95,14.23v60.08h-21.1v-97.24h18.81c2.71,0,.46,13.69,1.83,13.77,10.74-18.63,45.04-22.08,57.71-4.52,2.04,2.83,6.04,11.89,6.04,15.06v72.93Z" class="st2"/>
  <path d="M1601.1,549.25h-21.1c-3.71-22.98-32.98-25.88-43.6-6.45-9.45,17.27-6.64,53.25,17.56,55.89,15.17,1.65,24.66-7.46,26.97-21.91h20.18c-3.44,49.62-77.66,52.17-89.24,5.3-6.85-27.7,3.38-61.03,34.15-67.27,25.88-5.25,52.34,5.85,55.09,34.45Z" class="st2"/>
  <path d="M1753.37,487.79v28.44h17.89c.1,0,1.38,1.28,1.38,1.38v14.22h-19.26v59.17c0,2.18,3.79,5.96,5.96,5.96h13.3v16.51c-14.23,1.09-36.16,3.74-40.15-14.43-.23-1.04-1.13-7.31-1.13-8.04v-59.17h-15.59v-14.22c0-.1,1.28-1.38,1.38-1.38h14.22v-27.06c0-.1,1.28-1.38,1.38-1.38h20.64Z" class="st2"/>
  <path d="M1491.02,613.46h-21.1v-95.86c0-.1,1.28-1.38,1.38-1.38h18.35c.1,0,1.38,1.28,1.38,1.38v95.86Z" class="st2"/>
  <rect height="21.1" width="21.1" y="479.53" x="1469.92" class="st1"/>
  <path d="M356.15,549.84c-9.38-21.08-31-18.33-50.32-15.27l-14.62-51.71c5.05-4.03,20.45-2.47,25.07,1.36,2.89,2.39,6.29,16.82,8.31,17.1,1.26.19,4.07-1.24,4.2-2.96.44-5.75-5.03-16.95-3.82-23.74-1.07-3.29-16.26-2.68-19.65-2.47-5.47.36-11.49,1.89-16.93,2.81l-2.75-12.86-8.77,2.71c-.71,1.18,4.36,10.47,2.85,12.86-.67,1.09-11.62,7.26-14.26,9.65-12.04,10.89-15.38,27.18-11.45,42.66,5.94,23.43,26.64,26.76,47.74,22.26l1.13,1.32,15.58,53.99c-6.12,5.6-29.32,1.85-33.02-4.43-1.83-3.1-3.5-15.33-5.87-16.15-3.61-1.24-5.08.5-4.95,3.98.29,8.12,4.87,18.58,5.01,27.16,13.76,4.3,28.05.21,41.8-1.89.5,2.58,3.86,18.63,4.66,19.21,1.26.88,7.2-1.61,9.08-1.82l-6.12-19.7c4.38-3.99,9.84-6.23,14.41-10.05,15.88-13.3,21.25-34.8,12.69-54.01ZM269.27,523.89c-6.54-15.04-3.23-33.44,13.63-38.85l14.68,50.45c-12.17,2.58-22.99.61-28.3-11.6ZM335.21,601.09c-2.06,1.64-8.45,6.33-9.27,1.89l-14.56-51.85c14.47-3.31,27.9.08,32.74,15.35,3.88,12.27,1.59,26.37-8.91,34.61Z" class="st0"/>
  <path d="M356.15,549.84c-9.38-21.08-31-18.33-50.32-15.27l-14.62-51.71c5.05-4.03,20.45-2.47,25.07,1.36,2.89,2.39,6.29,16.82,8.31,17.1,1.26.19,4.07-1.24,4.2-2.96.44-5.75-5.03-16.95-3.82-23.74-1.07-3.29-16.26-2.68-19.65-2.47-5.47.36-11.49,1.89-16.93,2.81l-2.75-12.86-8.77,2.71c-.71,1.18,4.36,10.47,2.85,12.86-.67,1.09-11.62,7.26-14.26,9.65-12.04,10.89-15.38,27.18-11.45,42.66,5.94,23.43,26.64,26.76,47.74,22.26l1.13,1.32,15.58,53.99c-6.12,5.6-29.32,1.85-33.02-4.43-1.83-3.1-3.5-15.33-5.87-16.15-3.61-1.24-5.08.5-4.95,3.98.29,8.12,4.87,18.58,5.01,27.16,13.76,4.3,28.05.21,41.8-1.89.5,2.58,3.86,18.63,4.66,19.21,1.26.88,7.2-1.61,9.08-1.82l-6.12-19.7c4.38-3.99,9.84-6.23,14.41-10.05,15.88-13.3,21.25-34.8,12.69-54.01ZM269.27,523.89c-6.54-15.04-3.23-33.44,13.63-38.85l14.68,50.45c-12.17,2.58-22.99.61-28.3-11.6ZM335.21,601.09c-2.06,1.64-8.45,6.33-9.27,1.89l-14.56-51.85c14.47-3.31,27.9.08,32.74,15.35,3.88,12.27,1.59,26.37-8.91,34.61Z" class="st2"/>
</svg>